<?xml version="1.0" standalone="no"?>
<!DOCTYPE svg PUBLIC "-//W3C//DTD SVG 20010904//EN"
 "http://www.w3.org/TR/2001/REC-SVG-20010904/DTD/svg10.dtd">
<svg version="1.0" xmlns="http://www.w3.org/2000/svg"
 width="763.000000pt" height="763.000000pt" viewBox="0 0 763.000000 763.000000"
 preserveAspectRatio="xMidYMid meet">
<metadata>
Created by potrace 1.14, written by Peter Selinger 2001-2017
</metadata>
<g transform="translate(0.000000,763.000000) scale(0.100000,-0.100000)"
fill="#000000" stroke="none">
<path d="M3327 6993 c-5 -4 -29 -9 -102 -18 -122 -15 -178 -25 -270 -50 -16
-4 -34 -10 -40 -14 -5 -3 -18 -7 -28 -8 -10 -2 -25 -10 -34 -18 -8 -8 -18 -13
-22 -10 -5 2 -18 -5 -29 -16 -12 -11 -22 -17 -22 -14 0 2 -11 -5 -25 -17 -13
-11 -22 -25 -19 -30 3 -4 0 -8 -6 -8 -6 0 -15 -11 -22 -25 -6 -13 -14 -22 -18
-20 -4 2 -7 -1 -7 -8 0 -7 -4 -32 -8 -57 -16 -99 1 -166 61 -246 13 -17 24
-34 24 -37 0 -4 8 -16 18 -27 9 -11 17 -24 17 -28 0 -4 4 -13 9 -20 4 -7 5
-16 2 -19 -3 -3 -2 -11 4 -18 11 -13 30 -126 23 -137 -2 -5 0 -8 5 -8 11 0 10
-1017 -1 -1070 -6 -28 -27 -119 -32 -140 -9 -34 -93 -186 -118 -212 -6 -7 -18
-25 -26 -40 -8 -16 -18 -28 -23 -28 -4 0 -8 -6 -8 -14 0 -8 -3 -16 -7 -18 -15
-6 -62 -76 -56 -82 4 -3 1 -6 -5 -6 -6 0 -28 -26 -49 -57 -21 -32 -44 -65 -51
-73 -7 -8 -50 -67 -95 -130 -44 -63 -86 -118 -92 -122 -5 -4 -7 -8 -3 -8 4 0
-6 -15 -23 -32 -16 -18 -29 -37 -29 -43 0 -6 -9 -17 -19 -25 -11 -7 -18 -17
-15 -22 3 -4 -2 -11 -10 -14 -9 -3 -16 -10 -16 -16 0 -5 -6 -15 -12 -23 -24
-24 -53 -68 -50 -73 2 -3 -3 -9 -12 -14 -9 -5 -16 -16 -16 -23 0 -8 -4 -15
-10 -15 -5 0 -24 -22 -42 -50 -18 -27 -36 -50 -40 -50 -5 0 -8 -5 -8 -11 0 -6
-6 -17 -13 -24 -26 -30 -37 -44 -37 -50 0 -3 -9 -16 -21 -28 -12 -12 -33 -40
-47 -62 -14 -22 -28 -42 -32 -45 -4 -3 -19 -23 -33 -45 -14 -22 -39 -55 -56
-73 -17 -18 -29 -34 -28 -35 3 -3 -57 -81 -65 -85 -5 -2 -8 -8 -8 -13 0 -8
-20 -35 -48 -65 -7 -8 -11 -14 -7 -14 3 0 -6 -12 -20 -27 -14 -15 -25 -31 -25
-35 0 -5 -48 -82 -81 -129 -7 -10 -11 -20 -10 -23 1 -4 -10 -18 -23 -33 -14
-15 -23 -30 -20 -35 3 -4 0 -8 -7 -8 -7 0 -9 -3 -6 -7 4 -3 1 -13 -7 -22 -8
-9 -14 -18 -14 -21 0 -7 -26 -64 -32 -70 -12 -12 -74 -153 -72 -164 2 -4 -1
-13 -7 -20 -19 -23 -69 -233 -77 -326 -8 -92 -4 -263 6 -290 1 -3 2 -8 1 -13
0 -4 5 -7 12 -7 8 0 7 -4 -3 -10 -11 -7 -11 -10 -2 -10 7 0 10 -4 7 -10 -3 -5
0 -10 7 -10 9 0 9 -3 -2 -10 -10 -6 -11 -10 -2 -10 6 0 12 -11 12 -25 0 -14 4
-25 9 -25 5 0 8 -8 7 -17 -2 -10 3 -27 11 -39 7 -11 10 -24 6 -28 -5 -4 -2 -6
6 -4 7 2 15 -7 17 -20 2 -13 11 -30 18 -38 8 -8 18 -24 22 -37 4 -12 16 -30
27 -39 11 -10 16 -18 11 -18 -5 0 7 -14 26 -31 19 -17 28 -28 20 -23 -8 4 -2
-6 14 -23 17 -18 34 -30 38 -27 5 3 7 1 6 -4 -2 -5 11 -23 29 -39 18 -17 29
-33 26 -37 -3 -3 1 -6 11 -6 9 0 28 -12 41 -26 14 -15 25 -24 25 -20 0 4 10
-2 21 -13 18 -16 25 -18 40 -8 16 9 21 9 28 -1 4 -8 10 -13 12 -12 9 3 45 -15
63 -32 10 -9 23 -15 28 -12 4 3 8 0 8 -5 0 -6 7 -11 15 -11 8 0 15 -4 15 -10
0 -5 6 -10 14 -10 7 0 25 -11 40 -25 14 -13 26 -21 26 -18 0 3 7 0 15 -7 8 -7
22 -10 30 -6 9 3 13 2 10 -4 -5 -9 34 -32 58 -34 4 -1 12 -8 17 -16 9 -13 10
-13 10 0 1 12 3 11 11 -3 6 -9 14 -15 20 -12 5 4 9 1 9 -4 0 -6 7 -11 15 -11
9 0 34 -9 55 -20 22 -11 40 -18 40 -14 0 4 7 1 15 -6 8 -7 15 -9 15 -4 0 5 4
4 8 -1 4 -6 32 -19 62 -29 30 -11 66 -24 80 -29 14 -6 36 -12 50 -14 14 -2 27
-8 28 -14 2 -5 8 -7 12 -4 5 3 25 -1 44 -9 19 -8 36 -12 39 -10 2 3 17 0 33
-7 39 -15 74 -22 102 -22 12 1 22 -2 22 -6 0 -4 12 -8 28 -9 33 -1 97 -9 97
-12 0 -2 9 -4 20 -5 11 -1 45 -6 75 -10 30 -4 80 -9 110 -11 30 -2 80 -7 110
-10 82 -8 843 -13 855 -6 15 10 65 8 65 -2 0 -5 6 -4 13 2 6 6 53 12 102 13
50 2 96 8 103 13 9 7 16 6 22 -3 5 -9 10 -10 14 -3 3 6 19 11 34 11 31 0 72 8
80 16 3 2 11 0 19 -6 7 -6 13 -7 13 -2 0 5 6 10 13 10 33 2 106 15 142 25 22
6 51 12 65 14 14 2 31 4 38 5 6 1 12 6 12 11 0 5 4 7 9 4 7 -5 165 41 211 61
8 3 17 7 20 8 14 5 47 18 65 25 11 5 37 14 57 21 21 7 38 17 38 21 0 4 3 7 8
7 22 -4 42 2 37 11 -3 6 1 7 9 4 9 -3 16 -1 16 6 0 6 4 9 9 5 6 -3 14 3 20 12
5 10 12 17 15 16 15 -7 26 -2 20 9 -4 6 -3 8 4 4 6 -3 21 4 33 16 12 13 18 16
14 8 -9 -16 -5 -13 45 28 8 7 18 12 23 12 7 0 23 11 58 43 10 9 21 17 24 17 3
0 10 0 16 0 5 0 7 5 4 10 -6 9 8 14 27 11 5 0 7 5 5 12 -1 6 4 11 11 10 6 -2
12 2 12 8 0 5 4 8 9 5 5 -3 11 1 15 9 3 8 12 15 21 15 8 0 15 5 15 11 0 5 4 8
9 5 5 -3 12 1 15 10 3 8 10 12 16 9 5 -3 10 -2 10 3 0 13 37 24 87 26 36 2 49
10 97 59 31 31 56 61 56 67 0 6 6 8 13 4 7 -5 7 -2 -2 10 -12 14 -12 17 -1 14
7 -2 19 7 25 19 7 13 14 21 16 19 2 -3 12 9 21 25 11 18 13 27 5 24 -6 -4 -3
1 7 9 11 9 16 16 11 16 -4 0 -1 8 8 18 10 10 14 22 10 25 -3 4 -1 7 5 7 6 0 9
9 7 20 -2 11 0 18 6 15 8 -6 13 8 10 28 0 4 4 7 10 7 5 0 8 4 4 9 -3 5 -1 12
5 16 7 4 7 13 0 26 -9 15 -7 21 5 25 10 4 13 15 11 30 -3 16 -1 22 6 18 7 -5
9 -1 5 9 -3 10 -2 17 2 17 5 0 9 21 10 48 1 26 2 74 4 107 1 33 -1 70 -5 83
-5 13 -3 22 3 22 6 0 7 5 3 12 -4 7 -9 24 -9 38 -2 34 -24 140 -35 170 -6 14
-11 35 -13 47 -2 12 -6 26 -10 29 -4 4 -7 15 -7 24 0 9 -11 38 -25 65 -13 27
-22 52 -19 57 3 4 1 8 -4 8 -5 0 -15 18 -22 40 -7 22 -17 40 -21 40 -5 0 -14
18 -20 40 -7 22 -16 40 -20 40 -4 0 -13 16 -20 35 -7 19 -17 35 -21 35 -4 0
-8 6 -8 14 0 7 -7 19 -15 26 -8 7 -12 16 -9 21 3 5 0 9 -5 9 -6 0 -11 8 -11
17 0 9 -3 13 -6 10 -4 -4 -16 10 -27 31 -11 20 -22 39 -26 42 -3 3 -15 21 -25
40 -11 19 -25 40 -30 46 -6 6 -18 22 -26 34 -8 12 -19 28 -25 34 -25 28 -65
86 -60 86 3 0 -6 11 -21 25 -15 14 -24 25 -20 25 8 0 -10 23 -36 48 -10 9 -18
20 -18 24 0 4 -10 19 -22 34 -13 14 -21 26 -19 27 3 1 -10 18 -27 37 -18 19
-32 40 -32 47 0 6 -6 16 -13 20 -7 4 -44 51 -82 103 -38 52 -75 100 -82 106
-7 6 -13 16 -13 22 0 6 -11 23 -25 38 -14 15 -25 30 -25 34 0 4 -13 23 -30 41
-16 19 -32 42 -36 52 -3 9 -10 17 -16 17 -6 0 -9 3 -5 6 3 3 -8 20 -24 36 -16
17 -29 37 -29 44 0 8 -3 14 -7 14 -5 0 -19 17 -33 38 -30 45 -40 58 -62 82 -9
10 -15 20 -12 22 2 2 -10 19 -26 36 -16 18 -28 34 -27 35 3 3 -56 81 -68 89
-5 4 -6 8 -2 8 4 0 -2 10 -13 23 -12 12 -30 38 -40 57 -11 19 -19 31 -20 25 0
-5 -10 7 -23 27 -12 20 -37 57 -54 83 -18 25 -33 48 -33 51 0 3 -9 14 -20 26
-11 12 -26 34 -32 50 -7 15 -16 28 -20 28 -5 0 -7 3 -6 8 1 4 -10 33 -25 64
-14 32 -28 70 -31 85 -3 16 -7 39 -10 53 -15 65 -18 168 -20 605 -2 472 0 508
35 645 7 25 18 52 25 60 12 14 14 20 14 38 0 4 11 20 25 36 14 16 25 35 25 42
0 7 4 14 8 16 21 8 49 95 46 143 -1 28 -3 50 -4 50 -1 0 -3 16 -6 34 -2 19
-10 39 -17 43 -6 4 -8 8 -3 8 5 0 2 8 -7 18 -10 10 -14 22 -10 25 3 4 1 7 -5
7 -6 0 -26 14 -44 30 -18 17 -48 36 -65 42 -18 7 -33 16 -33 20 0 4 -9 8 -20
8 -11 0 -20 5 -20 12 0 6 -3 9 -6 5 -3 -3 -29 1 -57 10 -61 18 -106 27 -182
38 -11 1 -42 6 -70 10 -27 4 -64 8 -81 9 -16 2 -34 5 -40 8 -5 3 -18 2 -29 -2
-11 -4 -29 -4 -40 0 -26 10 -416 10 -434 0 -7 -4 -29 -4 -47 0 -18 4 -35 6
-37 3z"/>
</g>
</svg>
